<?xml version="1.0" encoding="UTF-8"?>
<svg width="32px" height="32px" viewBox="0 0 32 32" version="1.1" xmlns="http://www.w3.org/2000/svg" xmlns:xlink="http://www.w3.org/1999/xlink">
    <!-- Generator: Sketch 52.2 (67145) - http://www.bohemiancoding.com/sketch -->
    <title>箭头 (9)</title>
    <desc>Created with Sketch.</desc>
    <g id="Page-1" stroke="none" stroke-width="1" fill="none" fill-rule="evenodd">
        <g id="交易数据详情—移动端" transform="translate(-172.000000, -810.000000)" fill="#00A0E9" fill-rule="nonzero">
            <g id="Group" transform="translate(12.000000, 520.000000)">
                <g id="箭头-(9)" transform="translate(176.000000, 306.000000) rotate(-90.000000) translate(-176.000000, -306.000000) translate(160.000000, 290.000000)">
                    <path d="M12.3745194,17.0286936 L23.7421389,17.0286936 L23.7421389,14.9713474 L12.3745194,14.9713474 L16.6729119,10.8527707 L13.6332646,10.8527707 L8.25786772,16.0000205 L13.6332646,21.1472702 L16.6729119,21.1472702 L12.3745194,17.0286936 Z M31.2077444,16.0000205 C31.2077444,7.60240446 24.3976021,0.792296534 16.0000205,0.792296534 C7.60243883,0.792296534 0.792296534,7.60243883 0.792296534,16.0000205 C0.792296534,24.3976021 7.60243883,31.2077444 16.0000205,31.2077444 C24.3976021,31.2077444 31.2077444,24.3976021 31.2077444,16.0000205 Z M1.73977576,16.0000205 C1.73977576,8.12449257 8.12452694,1.73974139 16.0000549,1.73974139 C23.8755828,1.73974139 30.2603339,8.12449257 30.2603339,16.0000205 C30.2603339,23.8755484 23.8756171,30.2602996 16.0000549,30.2602996 C8.12452694,30.2602996 1.73977576,23.8755484 1.73977576,16.0000205 Z" id="Shape"></path>
                </g>
            </g>
        </g>
    </g>
</svg>