<?xml version="1.0" encoding="UTF-8"?>
<svg width="162px" height="22px" viewBox="0 0 162 22" version="1.1" xmlns="http://www.w3.org/2000/svg" xmlns:xlink="http://www.w3.org/1999/xlink">
    <!-- Generator: Sketch 52.2 (67145) - http://www.bohemiancoding.com/sketch -->
    <title>chaindigg、logo横版</title>
    <desc>Created with Sketch.</desc>
    <g id="Page-1" stroke="none" stroke-width="1" fill="none" fill-rule="evenodd">
        <g id="交易数据详情—移动端" transform="translate(-16.000000, -16.000000)">
            <g id="chaindigg、logo横版" transform="translate(16.000000, 16.000000)">
                <path d="M10.9399556,1.00671537 C11.3173506,1.00723373 11.6944709,1.0262855 12.0698376,1.06379597 L12.1013203,4.39797498 C8.47224055,3.84780889 4.9625787,5.90332603 3.8123098,9.25263163 C2.6620409,12.6019372 4.21019908,16.2578456 7.46870181,17.8870428 C10.7272045,19.5162399 14.7356297,18.6385307 16.9356761,15.8140964 L20,17.3821343 C17.0805147,21.5249732 11.5217868,23.1159583 6.71528626,21.1844036 C1.90878575,19.2528489 -0.810977336,14.3350448 0.215368558,9.43142316 C1.24171445,4.52780155 5.72920755,0.999837895 10.9399556,1 L10.9399556,1.00671537 Z" id="Shape" fill="#00A0E9"></path>
                <path d="M10.506875,6.01476867 C11.2136909,6.01307273 11.9141257,6.14851995 12.569375,6.41360649 L12.6175,0.00125706301 C13.59375,-0.0434402789 16,1.11869061 16,1.11869061 L16,11.4987887 C16,14.5370238 13.5375661,17 10.5,17 C7.46243388,17 5,14.5370238 5,11.4987887 C5,8.46055358 7.46243388,5.99757739 10.5,5.99757739 L10.506875,6.01476867 Z M10.5928125,9.50459959 C9.78224488,9.50459959 9.05149097,9.99298128 8.74130017,10.742013 C8.43110938,11.4910448 8.60256846,12.3532177 9.17572632,12.9265017 C9.74888418,13.4997858 10.6108672,13.6712827 11.359734,13.3610236 C12.1086008,13.0507644 12.596875,12.3198496 12.596875,11.5091035 C12.6005576,10.9733045 12.3896232,10.4583331 12.0111536,10.0791342 C11.6326841,9.69993535 11.1181865,9.48807673 10.5825,9.49084657 L10.5928125,9.50459959 Z" id="Shape" fill="#00A0E9"></path>
                <path d="M17,3 L17.0225989,7 L19,5.58906526 C18.4628885,4.58344554 17.785462,3.70649482 17,3 Z" id="Shape" fill="#00A0E9"></path>
                <path d="M34.484159,13.325 L38,13.325 L38,14.4928571 C38,15.7357143 37.6598325,16.6309524 36.9794974,17.1785714 C36.2991624,17.7261905 35.2017727,18 33.6873282,18 L27.9767077,18 C26.2362616,18 24.971118,17.6821429 24.1812769,17.0464286 C23.3914359,16.4107143 22.9976804,15.3285714 23.0000103,13.8 L23.0000103,10.3107143 C23.0000103,8.70357143 23.3844462,7.58452381 24.153318,6.95357143 C24.9221898,6.32261905 26.2036428,6.0047619 27.9976769,6 L32.2264718,6 C34.3956222,6 35.8774479,6.2547619 36.6719487,6.76428571 C37.4664496,7.27380952 37.862535,8.29761905 37.8602051,9.83571429 L37.8602051,10.4214286 L34.3618385,10.4214286 L34.3618385,10.0642857 C34.3797389,9.74093754 34.2262522,9.43269541 33.9599282,9.25714286 C33.561955,9.04584349 33.1139027,8.9530326 32.6668256,8.98928571 L28.8888692,8.98928571 C28.0524299,8.98928571 27.4699513,9.15952381 27.1414333,9.5 C26.8129154,9.84047619 26.6463265,10.4678571 26.6416667,11.3821429 L26.6416667,12.5178571 C26.6416667,13.5178571 26.7861214,14.1785714 27.0750308,14.5 C27.3639402,14.8214286 27.9336043,14.9797619 28.7840231,14.975 L32.5410103,14.975 C33.3588103,14.975 33.8865359,14.8714286 34.1171974,14.6678571 C34.347859,14.4642857 34.4666846,14.0035714 34.5051282,13.3107143 L34.484159,13.325 Z" id="Shape" fill="#FFFFFF" fill-rule="nonzero"></path>
                <polygon id="Shape" fill="#FFFFFF" fill-rule="nonzero" points="42 6 45.4192765 6 45.4192765 9.9118541 52.5807235 9.9118541 52.5807235 6 56 6 56 17 52.5807235 17 52.5807235 12.8139818 45.4192765 12.8139818 45.4192765 17 42 17"></polygon>
                <path d="M58,17 L64.244898,6 L68.755102,6 L75,17 L71.1802041,17 L70.07,15.0507599 L62.9646939,15.0507599 L61.8683673,17 L58,17 Z M64.2969388,12.6768997 L68.7481633,12.6768997 L66.5104082,8.62796353 L64.2969388,12.6768997 Z" id="Shape" fill="#FFFFFF" fill-rule="nonzero"></path>
                <polygon id="Shape" fill="#FFFFFF" fill-rule="nonzero" points="77 6 80 6 80 17 77 17"></polygon>
                <polygon id="Shape" fill="#FFFFFF" fill-rule="nonzero" points="85 6 90.211126 6 96.6186327 14.0243161 96.6186327 14.0243161 96.6186327 6 100 6 100 17 94.7788204 17 88.3713137 8.97568389 88.3713137 8.97568389 88.3713137 17 85 17"></polygon>
                <path d="M104,16.9998116 L104,6 L114.372558,6 C116.142208,6 117.355293,6.30313564 118.011813,6.90940692 C118.668333,7.5156782 118.997728,8.49641115 119,9.85160578 L119,13.1348322 C119,14.4721953 118.668333,15.4529283 118.004998,16.0770311 C117.341663,16.7011339 116.169468,17.0087274 114.488414,16.9998116 L104,16.9998116 Z M107.427987,14.1846623 L113.507042,14.1846623 C114.297592,14.1846623 114.837119,14.0386668 115.125625,13.7466759 C115.41413,13.4546849 115.562926,12.9498303 115.572013,12.2321121 L115.572013,10.730922 C115.572013,9.94633567 115.412994,9.41696276 115.094957,9.14280333 C114.778055,8.86864389 114.208996,8.72822076 113.391186,8.72822076 L107.427987,8.72822076 L107.427987,14.1846623 Z" id="Shape" fill="#FFFFFF" fill-rule="nonzero"></path>
                <polygon id="Shape" fill="#FFFFFF" fill-rule="nonzero" points="123 6 126 6 126 17 123 17"></polygon>
                <path d="M144.877651,10.1737601 L141.416922,10.1737601 C141.463831,9.7876623 141.335026,9.40088672 141.067353,9.12407518 C140.834307,8.9241352 140.39152,8.82416521 139.738992,8.82416521 L135.893737,8.82416521 C134.928928,8.82416521 134.313687,9.00268305 134.044519,9.35971874 C133.775351,9.71675442 133.642515,10.362989 133.642515,11.3198446 L133.642515,12.5516178 C133.642515,13.6679493 133.789334,14.3820207 134.082972,14.6938319 C134.380105,15.0115936 134.981363,15.1722597 135.88325,15.1829708 L139.630626,15.1829708 C140.134904,15.2266937 140.641092,15.1252726 141.091823,14.8902015 C141.37369,14.6702231 141.52757,14.3196184 141.500818,13.9583384 L141.500818,13.6262952 L137.085766,13.6262952 L137.085766,11.1841711 L145,11.1841711 L145,14.5474472 C145,15.8946619 144.664414,16.8074831 143.993242,17.285911 C143.322071,17.7643388 141.958753,18.0023626 139.903289,17.9999823 L134.977868,17.9999823 C133.237016,17.9999823 131.971577,17.6822206 131.181552,17.046697 C130.391527,16.4111735 129.99768,15.3293554 130.00001,13.8012427 L130.00001,10.313004 C130.00001,8.74442724 130.382205,7.63285614 131.146595,6.97829071 C131.910985,6.32372529 133.192737,5.9976327 134.99185,6.00001294 L140.291311,6.00001294 C141.950596,6.00001294 143.130973,6.26540946 143.832441,6.79620251 C144.533908,7.32699557 144.883477,8.2898018 144.881147,9.68462121 L144.881147,10.1666194 L144.877651,10.1737601 Z" id="Shape" fill="#FFFFFF" fill-rule="nonzero"></path>
                <path d="M161.88806,10.1737601 L158.424909,10.1737601 C158.471851,9.7876623 158.342956,9.40088672 158.075096,9.12407518 C157.841887,8.9241352 157.39879,8.82416521 156.745806,8.82416521 L152.897861,8.82416521 C151.932376,8.82416521 151.316705,9.00268305 151.047349,9.35971874 C150.777993,9.71675442 150.645064,10.362989 150.645064,11.3198446 L150.645064,12.5516178 C150.645064,13.6679493 150.791985,14.3820207 151.085828,14.6938319 C151.38317,15.0115936 151.984848,15.1722597 152.887366,15.1829708 L156.637364,15.1829708 C157.141995,15.2266937 157.648537,15.1252726 158.099583,14.8902015 C158.381647,14.6702231 158.535635,14.3196184 158.508864,13.9583384 L158.508864,13.6262952 L154.094222,13.6262952 L154.094222,11.1841711 L162,11.1841711 L162,14.5474472 C162,15.8946619 161.664179,16.8074831 160.992538,17.285911 C160.320897,17.7643388 158.956625,18.0023626 156.899724,17.9999823 L151.98135,17.9999823 C150.23928,17.9999823 148.972957,17.6822206 148.182379,17.046697 C147.391801,16.4111735 146.997678,15.3293554 147.00001,13.8012427 L147.00001,10.313004 C147.00001,8.74442724 147.382473,7.63285614 148.147398,6.97829071 C148.912322,6.32372529 150.194971,5.9976327 151.995343,6.00001294 L157.309005,6.00001294 C158.969452,6.00001294 160.150654,6.26540946 160.852613,6.79620251 C161.554571,7.32699557 161.904384,8.2898018 161.902052,9.68462121 L161.902052,10.1666194 L161.88806,10.1737601 Z" id="Shape" fill="#FFFFFF" fill-rule="nonzero"></path>
            </g>
        </g>
    </g>
</svg>