<?xml version="1.0" encoding="UTF-8"?>
<svg width="16px" height="16px" viewBox="0 0 16 16" version="1.1" xmlns="http://www.w3.org/2000/svg" xmlns:xlink="http://www.w3.org/1999/xlink">
    <!-- Generator: Sketch 52.2 (67145) - http://www.bohemiancoding.com/sketch -->
    <title>搜索 (1)</title>
    <desc>Created with Sketch.</desc>
    <g id="Page-1" stroke="none" stroke-width="1" fill="none" fill-rule="evenodd">
        <g id="移动端首页" transform="translate(-334.000000, -281.000000)" fill="#C8C8C8" fill-rule="nonzero">
            <g id="搜索-(1)" transform="translate(334.000000, 281.000000)">
                <path d="M11.8139728,11.8142239 C10.5062465,13.121695 8.76786031,13.841688 6.91914354,13.841688 C5.07075611,13.841688 3.33204061,13.1217156 2.02431428,11.8142239 C-0.674771428,9.116303 -0.674771428,4.7253644 2.02431428,2.02680552 C3.33204061,0.719972422 5.07075611,0 6.91914354,0 C8.76786031,0 10.5062465,0.719972422 11.8139728,2.02680552 C14.5133673,4.7253644 14.5133673,9.116303 11.8139728,11.8142239 Z M11.2032024,2.6377654 C10.0588518,1.49396746 8.5372364,0.864341444 6.91914352,0.864341444 C5.3013594,0.864341444 3.77943527,1.49396746 2.63541402,2.6377654 C0.274359841,4.99965527 0.274359841,8.8420121 2.63541402,11.2029347 C3.77943527,12.3473706 5.30137998,12.9773259 6.91914352,12.9773259 C8.5372364,12.9773259 10.0588518,12.3473912 11.2032024,11.2029347 C13.5639272,8.84201212 13.5639272,4.99965529 11.2032024,2.6377654 Z M15.8728831,15.872342 C15.7886119,15.9578727 15.6776638,16 15.5676626,16 C15.4563851,16 15.3463838,15.9578726 15.2614746,15.872342 L13.101115,13.7124041 C12.9322639,13.542948 12.9322639,13.2692951 13.101115,13.1004769 C13.269328,12.9316588 13.5430344,12.9316588 13.7118855,13.1004769 L15.8728831,15.2616908 C16.0423723,15.4311675 16.0423723,15.7044911 15.8728831,15.872342 Z" id="Shape"></path>
            </g>
        </g>
    </g>
</svg>