<?xml version="1.0" encoding="UTF-8"?>
<svg width="20px" height="22px" viewBox="0 0 20 22" version="1.1" xmlns="http://www.w3.org/2000/svg" xmlns:xlink="http://www.w3.org/1999/xlink">
    <!-- Generator: Sketch 52.2 (67145) - http://www.bohemiancoding.com/sketch -->
    <title>搜索</title>
    <desc>Created with Sketch.</desc>
    <g id="Page-1" stroke="none" stroke-width="1" fill="none" fill-rule="evenodd">
        <g id="Desktop-HD-Copy-5" transform="translate(-978.000000, -376.000000)" fill="#FFFFFF" fill-rule="nonzero">
            <g id="分组-3" transform="translate(420.000000, 367.000000)">
                <g id="搜索" transform="translate(558.000000, 9.000000)">
                    <path d="M10,20.1420289 C4.5,20.1420289 0,15.6100724 0,10.0710144 C0,4.53195649 4.5,0 10,0 C15.5,0 20,4.53195649 20,10.0710144 C20,15.6100724 15.5,20.1420289 10,20.1420289 Z M10,18.4635265 C14.5833333,18.4635265 18.3333333,14.6868961 18.3333333,10.0710144 C18.3333334,5.4551328 14.5833333,1.67850241 10,1.67850241 C5.41666665,1.67850241 1.66666667,5.45513282 1.66666667,10.0710144 C1.66666667,14.686896 5.41666667,18.4635264 10,18.4635265 Z M16.1666667,19.8063284 C15.8333333,19.4706279 15.9166667,18.8831521 16.25,18.6313767 C16.5833333,18.3796013 17.1666667,18.3796013 17.4166667,18.7153018 L19,20.6455796 C19.3333333,20.9812801 19.25,21.5687559 18.9166667,21.8205313 C18.5833333,22.0723066 18,22.0723066 17.75,21.7366062 L16.1666667,19.8063284 Z" id="Shape"></path>
                </g>
            </g>
        </g>
    </g>
</svg>